<svg width="32" height="32" viewBox="0 0 32 32" fill="none" xmlns="http://www.w3.org/2000/svg">
<path d="M20.5 16.5C20.5 17.2911 20.2654 18.0645 19.8259 18.7223C19.3864 19.3801 18.7616 19.8928 18.0307 20.1955C17.2998 20.4983 16.4956 20.5775 15.7196 20.4231C14.9437 20.2688 14.231 19.8878 13.6716 19.3284C13.1122 18.769 12.7312 18.0563 12.5769 17.2804C12.4225 16.5044 12.5017 15.7002 12.8045 14.9693C13.1072 14.2384 13.6199 13.6136 14.2777 13.1741C14.9355 12.7346 15.7089 12.5 16.5 12.5C17.5599 12.5033 18.5754 12.9258 19.3248 13.6752C20.0742 14.4246 20.4967 15.4401 20.5 16.5ZM29 11V22C29 23.8565 28.2625 25.637 26.9497 26.9497C25.637 28.2625 23.8565 29 22 29H11C9.14348 29 7.36301 28.2625 6.05025 26.9497C4.7375 25.637 4 23.8565 4 22V11C4 9.14348 4.7375 7.36301 6.05025 6.05025C7.36301 4.7375 9.14348 4 11 4H22C23.8565 4 25.637 4.7375 26.9497 6.05025C28.2625 7.36301 29 9.14348 29 11ZM22.5 16.5C22.5 15.3133 22.1481 14.1533 21.4888 13.1666C20.8295 12.1799 19.8925 11.4108 18.7961 10.9567C17.6997 10.5026 16.4933 10.3838 15.3295 10.6153C14.1656 10.8468 13.0965 11.4182 12.2574 12.2574C11.4182 13.0965 10.8468 14.1656 10.6153 15.3295C10.3838 16.4933 10.5026 17.6997 10.9567 18.7961C11.4108 19.8925 12.1799 20.8295 13.1666 21.4888C14.1533 22.1481 15.3133 22.5 16.5 22.5C18.0913 22.5 19.6174 21.8679 20.7426 20.7426C21.8679 19.6174 22.5 18.0913 22.5 16.5ZM24.5 10C24.5 9.70333 24.412 9.41332 24.2472 9.16665C24.0824 8.91997 23.8481 8.72771 23.574 8.61418C23.2999 8.50065 22.9983 8.47094 22.7074 8.52882C22.4164 8.5867 22.1491 8.72956 21.9393 8.93934C21.7296 9.14912 21.5867 9.41639 21.5288 9.70736C21.4709 9.99834 21.5007 10.2999 21.6142 10.574C21.7277 10.8481 21.92 11.0824 22.1666 11.2472C22.4133 11.412 22.7033 11.5 23 11.5C23.3978 11.5 23.7794 11.342 24.0607 11.0607C24.342 10.7794 24.5 10.3978 24.5 10Z" fill="#222222"/>
</svg>
